<svg width="36" height="36" viewBox="0 0 36 36" fill="none" xmlns="http://www.w3.org/2000/svg">
<path fill-rule="evenodd" clip-rule="evenodd" d="M18 1.125C8.46937 1.125 0.75 8.84437 0.75 18.375C0.75 26.0081 5.68781 32.4553 12.5447 34.7409C13.4072 34.8919 13.7306 34.3744 13.7306 33.9216C13.7306 33.5119 13.7091 32.1534 13.7091 30.7087C9.375 31.5066 8.25375 29.6522 7.90875 28.6819C7.71469 28.1859 6.87375 26.655 6.14062 26.2453C5.53687 25.9219 4.67437 25.1241 6.11906 25.1025C7.4775 25.0809 8.44781 26.3531 8.77125 26.8706C10.3237 29.4797 12.8034 28.7466 13.7953 28.2937C13.9463 27.1725 14.3991 26.4178 14.895 25.9866C11.0569 25.5553 7.04625 24.0675 7.04625 17.4694C7.04625 15.5934 7.71469 14.0409 8.81437 12.8334C8.64187 12.4022 8.03813 10.6341 8.98688 8.26219C8.98688 8.26219 10.4316 7.80938 13.7306 10.0303C15.1106 9.64219 16.5769 9.44812 18.0431 9.44812C19.5094 9.44812 20.9756 9.64219 22.3556 10.0303C25.6547 7.78781 27.0994 8.26219 27.0994 8.26219C28.0481 10.6341 27.4444 12.4022 27.2719 12.8334C28.3716 14.0409 29.04 15.5719 29.04 17.4694C29.04 24.0891 25.0078 25.5553 21.1697 25.9866C21.795 26.5256 22.3341 27.5606 22.3341 29.1778C22.3341 31.485 22.3125 33.3394 22.3125 33.9216C22.3125 34.3744 22.6359 34.9134 23.4984 34.7409C30.3122 32.4553 35.25 25.9866 35.25 18.375C35.25 8.84437 27.5306 1.125 18 1.125V1.125Z" fill="#A73D0F"/>
</svg>
