<svg width="93" height="36" viewBox="0 0 93 36" fill="none" xmlns="http://www.w3.org/2000/svg">
<g clip-path="url(#clip0_14_7)">
<path d="M0 0H92.5714V30.8571H46.2857V36H25.7143V30.8571H0V0ZM5.14286 25.7143H15.4286V10.2857H20.5714V25.7143H25.7143V5.14286H5.14286V25.7143ZM30.8571 5.14286V30.8571H41.1429V25.7143H51.4286V5.14286H30.8571ZM41.1429 10.2857H46.2857V20.5714H41.1429V10.2857ZM56.5714 5.14286V25.7143H66.8571V10.2857H72V25.7143H77.1429V10.2857H82.2857V25.7143H87.4286V5.14286H56.5714Z" fill="#A73D0F"/>
<path d="M5.14288 25.7143H15.4286V10.2857H20.5715V25.7143H25.7143V5.14285H5.14288V25.7143Z" fill="#E5C7C7"/>
<path d="M30.8571 5.14285V30.8571H41.1428V25.7143H51.4285V5.14285H30.8571ZM46.2857 20.5714H41.1428V10.2857H46.2857V20.5714Z" fill="#E5C7C7"/>
<path d="M56.5714 5.14285V25.7143H66.8571V10.2857H72V25.7143H77.1428V10.2857H82.2857V25.7143H87.4286V5.14285H56.5714Z" fill="#E5C7C7"/>
</g>
<defs>
<clipPath id="clip0_14_7">
<rect width="92.5714" height="36" fill="white"/>
</clipPath>
</defs>
</svg>
